<svg width="105" height="21" viewBox="0 0 105 21" fill="none" xmlns="http://www.w3.org/2000/svg">
<path d="M29.616 16V12.556H26.568V16H25.128V7.84H26.568V11.176H29.616V7.84H31.056V16H29.616ZM33.1157 7.84H34.5917V13.072C34.5917 13.6 34.7077 14.016 34.9397 14.32C35.1717 14.616 35.5437 14.764 36.0557 14.764C36.5677 14.764 36.9397 14.616 37.1717 14.32C37.4037 14.016 37.5197 13.6 37.5197 13.072V7.84H38.9957V13.072C38.9957 13.992 38.7517 14.732 38.2637 15.292C37.7757 15.844 37.0397 16.12 36.0557 16.12C35.0637 16.12 34.3237 15.844 33.8357 15.292C33.3557 14.732 33.1157 13.992 33.1157 13.072V7.84ZM41.0655 16V7.84H43.5495C44.1575 7.84 44.6375 7.928 44.9895 8.104C45.3495 8.28 45.6055 8.528 45.7575 8.848C45.9175 9.168 45.9975 9.544 45.9975 9.976V10.312C45.9975 10.944 45.7255 11.428 45.1815 11.764C45.5655 11.916 45.8575 12.136 46.0575 12.424C46.2575 12.712 46.3575 13.056 46.3575 13.456V13.792C46.3575 14.232 46.2775 14.62 46.1175 14.956C45.9575 15.284 45.6935 15.54 45.3255 15.724C44.9575 15.908 44.4655 16 43.8495 16H41.0655ZM43.5495 9.16H42.5055V11.2H43.5495C43.8695 11.2 44.1095 11.128 44.2695 10.984C44.4375 10.832 44.5215 10.628 44.5215 10.372V9.976C44.5215 9.72 44.4375 9.52 44.2695 9.376C44.1095 9.232 43.8695 9.16 43.5495 9.16ZM43.8495 12.52H42.5055V14.68H43.8495C44.1855 14.68 44.4415 14.6 44.6175 14.44C44.7935 14.28 44.8815 14.064 44.8815 13.792V13.396C44.8815 13.124 44.7935 12.912 44.6175 12.76C44.4415 12.6 44.1855 12.52 43.8495 12.52ZM52.261 12.868H49.525V16H48.085V7.84H52.621V9.22H49.525V11.488H52.261V12.868ZM59.9156 11.056V12.772C59.9156 13.812 59.6556 14.632 59.1356 15.232C58.6156 15.824 57.8556 16.12 56.8556 16.12C55.8476 16.12 55.0836 15.824 54.5636 15.232C54.0516 14.632 53.7956 13.812 53.7956 12.772V11.056C53.7956 10.016 54.0516 9.2 54.5636 8.608C55.0836 8.016 55.8476 7.72 56.8556 7.72C57.8556 7.72 58.6156 8.016 59.1356 8.608C59.6556 9.2 59.9156 10.016 59.9156 11.056ZM58.4396 11.056C58.4396 10.4 58.3116 9.908 58.0556 9.58C57.7996 9.244 57.3996 9.076 56.8556 9.076C56.3116 9.076 55.9116 9.244 55.6556 9.58C55.3996 9.908 55.2716 10.4 55.2716 11.056V12.772C55.2716 13.428 55.3996 13.924 55.6556 14.26C55.9116 14.596 56.3116 14.764 56.8556 14.764C57.3996 14.764 57.7996 14.596 58.0556 14.26C58.3116 13.924 58.4396 13.428 58.4396 12.772V11.056ZM63.3914 7.84L65.6714 13.42L67.9394 7.84H69.5114V16H68.1314V12.88L68.3114 10.024L66.2834 15.04H64.9994L63.0194 10.012L63.1994 12.88V16H61.8194V7.84H63.3914ZM76.4966 14.62V16H71.7686V7.84H76.3766V9.22H73.2086V11.176H76.0166V12.556H73.2086V14.62H76.4966ZM82.7502 14.62V16H77.5302V14.74L80.9382 9.22H77.6502V7.84H82.6302V9.1L79.2222 14.62H82.7502ZM89.0357 14.62V16H84.3077V7.84H88.9157V9.22H85.7477V11.176H88.5557V12.556H85.7477V14.62H89.0357ZM92.1813 13V16H90.7413V7.84H93.4653C94.2893 7.84 94.9213 8.052 95.3613 8.476C95.8093 8.892 96.0333 9.452 96.0333 10.156V10.672C96.0333 11.136 95.9333 11.544 95.7333 11.896C95.5333 12.248 95.2453 12.516 94.8693 12.7C95.5253 13.82 96.0853 14.92 96.5493 16H94.9053C94.5053 15 94.0293 14 93.4773 13H92.1813ZM93.4653 9.16H92.1813V11.68H93.4653C93.8173 11.68 94.0853 11.592 94.2693 11.416C94.4613 11.232 94.5573 10.984 94.5573 10.672V10.156C94.5573 9.852 94.4613 9.612 94.2693 9.436C94.0853 9.252 93.8173 9.16 93.4653 9.16ZM103.826 11.056V12.772C103.826 13.812 103.566 14.632 103.046 15.232C102.526 15.824 101.766 16.12 100.766 16.12C99.7578 16.12 98.9938 15.824 98.4738 15.232C97.9618 14.632 97.7058 13.812 97.7058 12.772V11.056C97.7058 10.016 97.9618 9.2 98.4738 8.608C98.9938 8.016 99.7578 7.72 100.766 7.72C101.766 7.72 102.526 8.016 103.046 8.608C103.566 9.2 103.826 10.016 103.826 11.056ZM102.35 11.056C102.35 10.4 102.222 9.908 101.966 9.58C101.71 9.244 101.31 9.076 100.766 9.076C100.222 9.076 99.8218 9.244 99.5658 9.58C99.3098 9.908 99.1818 10.4 99.1818 11.056V12.772C99.1818 13.428 99.3098 13.924 99.5658 14.26C99.8218 14.596 100.222 14.764 100.766 14.764C101.31 14.764 101.71 14.596 101.966 14.26C102.222 13.924 102.35 13.428 102.35 12.772V11.056Z" fill="white"/>
<path d="M18.9945 12.0203C18.7902 11.8628 18.5559 11.7485 18.3059 11.6845C18.0559 11.6204 17.7956 11.6079 17.5406 11.6477C19.0078 10.1664 19.75 8.69375 19.75 7.25C19.75 5.18203 18.0867 3.5 16.0422 3.5C15.4997 3.49659 14.963 3.61197 14.4699 3.83803C13.9767 4.0641 13.539 4.39537 13.1875 4.80859C12.836 4.39537 12.3983 4.0641 11.9051 3.83803C11.412 3.61197 10.8753 3.49659 10.3328 3.5C8.28828 3.5 6.625 5.18203 6.625 7.25C6.625 8.10937 6.87812 8.94453 7.41094 9.82812C6.97456 9.93868 6.57632 10.1655 6.25859 10.4844L4.49141 12.25H2.25C1.91848 12.25 1.60054 12.3817 1.36612 12.6161C1.1317 12.8505 1 13.1685 1 13.5L1 16.625C1 16.9565 1.1317 17.2745 1.36612 17.5089C1.60054 17.7433 1.91848 17.875 2.25 17.875H10.375C10.4261 17.875 10.477 17.8687 10.5266 17.8562L15.5266 16.6062C15.5584 16.5987 15.5895 16.5882 15.6195 16.575L18.6562 15.2828L18.6906 15.2672C18.9825 15.1213 19.2324 14.9036 19.4168 14.6345C19.6013 14.3654 19.7142 14.0537 19.7449 13.7289C19.7756 13.4041 19.7231 13.0768 19.5924 12.7779C19.4617 12.479 19.257 12.2183 18.9977 12.0203H18.9945ZM10.3328 4.75C10.8169 4.74291 11.2921 4.88037 11.6976 5.14479C12.1031 5.40921 12.4206 5.78857 12.6094 6.23437C12.6565 6.349 12.7366 6.44705 12.8395 6.51605C12.9424 6.58505 13.0636 6.62189 13.1875 6.62189C13.3114 6.62189 13.4326 6.58505 13.5355 6.51605C13.6384 6.44705 13.7185 6.349 13.7656 6.23437C13.9544 5.78857 14.2719 5.40921 14.6774 5.14479C15.0829 4.88037 15.5581 4.74291 16.0422 4.75C17.3742 4.75 18.5 5.89453 18.5 7.25C18.5 8.77422 17.2664 10.4984 14.9328 12.2422L14.0664 12.4414C14.1425 12.1201 14.1448 11.7858 14.0733 11.4636C14.0017 11.1413 13.8582 10.8393 13.6534 10.5804C13.4486 10.3215 13.1878 10.1123 12.8907 9.96846C12.5935 9.82465 12.2676 9.74996 11.9375 9.75H8.86563C8.19141 8.84062 7.875 8.04062 7.875 7.25C7.875 5.89453 9.00078 4.75 10.3328 4.75ZM2.25 13.5H4.125V16.625H2.25V13.5ZM18.143 14.1414L15.1742 15.4055L10.2969 16.625H5.375V13.1336L7.14297 11.3664C7.25862 11.2498 7.39629 11.1574 7.54798 11.0945C7.69967 11.0316 7.86235 10.9995 8.02656 11H11.9375C12.1861 11 12.4246 11.0988 12.6004 11.2746C12.7762 11.4504 12.875 11.6889 12.875 11.9375C12.875 12.1861 12.7762 12.4246 12.6004 12.6004C12.4246 12.7762 12.1861 12.875 11.9375 12.875H9.75C9.58424 12.875 9.42527 12.9408 9.30806 13.0581C9.19085 13.1753 9.125 13.3342 9.125 13.5C9.125 13.6658 9.19085 13.8247 9.30806 13.9419C9.42527 14.0591 9.58424 14.125 9.75 14.125H12.25C12.297 14.1249 12.3439 14.1196 12.3898 14.1094L17.6242 12.9055L17.6484 12.8992C17.8082 12.8549 17.9788 12.8712 18.1273 12.945C18.2758 13.0188 18.3917 13.1449 18.4528 13.2991C18.5139 13.4533 18.5158 13.6246 18.4582 13.7801C18.4005 13.9356 18.2874 14.0643 18.1406 14.1414H18.143Z" fill="white"/>
<line y1="0.5" x2="72" y2="0.5" stroke="white"/>
<line x1="33" y1="20.5" x2="105" y2="20.5" stroke="white"/>
</svg>
